<?xml version="1.0" encoding="UTF-8" standalone="no"?>
<!DOCTYPE svg PUBLIC "-//W3C//DTD SVG 1.1//EN"
 "http://www.w3.org/Graphics/SVG/1.1/DTD/svg11.dtd">
<!-- Generated by graphviz version 2.43.0 (0)
 -->
<!-- Title: %3 Pages: 1 -->
<svg width="575pt" height="626pt"
 viewBox="0.00 0.00 574.75 626.48" xmlns="http://www.w3.org/2000/svg" xmlns:xlink="http://www.w3.org/1999/xlink">
<g id="graph0" class="graph" transform="scale(1 1) rotate(0) translate(4 622.48)">
<title>%3</title>
<polygon fill="white" stroke="transparent" points="-4,4 -4,-622.48 570.75,-622.48 570.75,4 -4,4"/>
<text text-anchor="middle" x="283.38" y="-606.48" font-family="Times,serif" font-size="10.00">Expanded Data Flow (Vertical Layout)</text>
<!-- PDF -->
<g id="node1" class="node">
<title>PDF</title>
<polygon fill="#fff2cc" stroke="black" points="139.75,-599.48 49.75,-599.48 49.75,-563.48 139.75,-563.48 139.75,-599.48"/>
<text text-anchor="middle" x="94.75" y="-577.78" font-family="Times,serif" font-size="14.00">Input PDF</text>
</g>
<!-- parse_pdf -->
<g id="node3" class="node">
<title>parse_pdf</title>
<ellipse fill="#dae8fc" stroke="black" cx="94.75" cy="-494.48" rx="69.59" ry="18"/>
<text text-anchor="middle" x="94.75" y="-490.78" font-family="Times,serif" font-size="14.00">parse_pdf.py</text>
</g>
<!-- PDF&#45;&gt;parse_pdf -->
<g id="edge1" class="edge">
<title>PDF&#45;&gt;parse_pdf</title>
<path fill="none" stroke="black" d="M94.75,-563.28C94.75,-551.64 94.75,-536.03 94.75,-522.72"/>
<polygon fill="black" stroke="black" points="98.25,-522.66 94.75,-512.66 91.25,-522.66 98.25,-522.66"/>
<text text-anchor="middle" x="111.25" y="-534.28" font-family="Times,serif" font-size="14.00">read</text>
</g>
<!-- User -->
<g id="node2" class="node">
<title>User</title>
<polygon fill="#cfe2f3" stroke="black" points="309.75,-231.74 193.75,-231.74 193.75,-193.74 309.75,-193.74 309.75,-231.74"/>
<text text-anchor="middle" x="251.75" y="-216.54" font-family="Times,serif" font-size="14.00">User Input</text>
<text text-anchor="middle" x="251.75" y="-201.54" font-family="Times,serif" font-size="14.00">(Streamlit UI)</text>
</g>
<!-- app -->
<g id="node9" class="node">
<title>app</title>
<ellipse fill="#d5e8d4" stroke="black" cx="251.75" cy="-115.87" rx="82.96" ry="26.74"/>
<text text-anchor="middle" x="251.75" y="-119.67" font-family="Times,serif" font-size="14.00">bahari_app.py</text>
<text text-anchor="middle" x="251.75" y="-104.67" font-family="Times,serif" font-size="14.00">(Streamlit UI)</text>
</g>
<!-- User&#45;&gt;app -->
<g id="edge3" class="edge">
<title>User&#45;&gt;app</title>
<path fill="none" stroke="black" d="M251.75,-193.45C251.75,-182.03 251.75,-166.95 251.75,-153.18"/>
<polygon fill="black" stroke="black" points="255.25,-153 251.75,-143 248.25,-153 255.25,-153"/>
<text text-anchor="middle" x="321.25" y="-164.54" font-family="Times,serif" font-size="14.00">user filters, actions</text>
</g>
<!-- extracted_data -->
<g id="node4" class="node">
<title>extracted_data</title>
<polygon fill="#e1d5e7" stroke="black" points="148.25,-425.48 41.25,-425.48 41.25,-387.48 148.25,-387.48 148.25,-425.48"/>
<text text-anchor="middle" x="94.75" y="-410.28" font-family="Times,serif" font-size="14.00">Parsed data</text>
<text text-anchor="middle" x="94.75" y="-395.28" font-family="Times,serif" font-size="14.00">(DataFrame)</text>
</g>
<!-- parse_pdf&#45;&gt;extracted_data -->
<g id="edge2" class="edge">
<title>parse_pdf&#45;&gt;extracted_data</title>
<path fill="none" stroke="black" d="M94.75,-476.08C94.75,-464.54 94.75,-449.13 94.75,-435.84"/>
<polygon fill="black" stroke="black" points="98.25,-435.75 94.75,-425.75 91.25,-435.75 98.25,-435.75"/>
<text text-anchor="middle" x="143.25" y="-447.28" font-family="Times,serif" font-size="14.00">→ DataFrame</text>
</g>
<!-- models -->
<g id="node7" class="node">
<title>models</title>
<ellipse fill="#dae8fc" stroke="black" cx="94.75" cy="-309.61" rx="94.51" ry="26.74"/>
<text text-anchor="middle" x="94.75" y="-313.41" font-family="Times,serif" font-size="14.00">models.py</text>
<text text-anchor="middle" x="94.75" y="-298.41" font-family="Times,serif" font-size="14.00">(Item, Category)</text>
</g>
<!-- extracted_data&#45;&gt;models -->
<g id="edge4" class="edge">
<title>extracted_data&#45;&gt;models</title>
<path fill="none" stroke="black" d="M94.75,-387.19C94.75,-375.78 94.75,-360.69 94.75,-346.92"/>
<polygon fill="black" stroke="black" points="98.25,-346.74 94.75,-336.74 91.25,-346.74 98.25,-346.74"/>
<text text-anchor="middle" x="140.25" y="-358.28" font-family="Times,serif" font-size="14.00">map to ORM</text>
</g>
<!-- fx_loader -->
<g id="node5" class="node">
<title>fx_loader</title>
<ellipse fill="#fce5cd" stroke="black" cx="346.75" cy="-406.48" rx="50.09" ry="18"/>
<text text-anchor="middle" x="346.75" y="-402.78" font-family="Times,serif" font-size="14.00">load_fx()</text>
</g>
<!-- fx_model -->
<g id="node6" class="node">
<title>fx_model</title>
<polygon fill="#fce5cd" stroke="black" points="207.25,-291.61 207.25,-327.61 368.25,-327.61 368.25,-291.61 207.25,-291.61"/>
<text text-anchor="middle" x="287.75" y="-305.91" font-family="Times,serif" font-size="14.00">Fx Table(models.py)</text>
</g>
<!-- fx_loader&#45;&gt;fx_model -->
<g id="edge7" class="edge">
<title>fx_loader&#45;&gt;fx_model</title>
<path fill="none" stroke="black" d="M313.99,-392.64C304.13,-387.07 294.43,-379.48 288.75,-369.48 283.38,-360.01 282.3,-348.23 282.88,-337.7"/>
<polygon fill="black" stroke="black" points="286.36,-338.03 283.91,-327.72 279.4,-337.31 286.36,-338.03"/>
<text text-anchor="middle" x="340.25" y="-358.28" font-family="Times,serif" font-size="14.00">reads Fx table</text>
</g>
<!-- fx_loader&#45;&gt;app -->
<g id="edge9" class="edge">
<title>fx_loader&#45;&gt;app</title>
<path fill="none" stroke="black" d="M372.64,-391.02C380.22,-385.36 387.59,-378.14 391.75,-369.48 431.94,-285.86 446.68,-235.51 391.75,-160.74 379.38,-143.89 360.55,-133.34 340.67,-126.77"/>
<polygon fill="black" stroke="black" points="341.44,-123.35 330.86,-123.86 339.45,-130.06 341.44,-123.35"/>
<text text-anchor="middle" x="496.75" y="-253.54" font-family="Times,serif" font-size="14.00">used in margin calc</text>
</g>
<!-- db -->
<g id="node8" class="node">
<title>db</title>
<path fill="#f8cecc" stroke="black" d="M175.75,-227.47C175.75,-229.27 155.13,-230.74 129.75,-230.74 104.37,-230.74 83.75,-229.27 83.75,-227.47 83.75,-227.47 83.75,-198.01 83.75,-198.01 83.75,-196.21 104.37,-194.74 129.75,-194.74 155.13,-194.74 175.75,-196.21 175.75,-198.01 175.75,-198.01 175.75,-227.47 175.75,-227.47"/>
<path fill="none" stroke="black" d="M175.75,-227.47C175.75,-225.66 155.13,-224.19 129.75,-224.19 104.37,-224.19 83.75,-225.66 83.75,-227.47"/>
<text text-anchor="middle" x="129.75" y="-209.04" font-family="Times,serif" font-size="14.00">SQLite DB</text>
</g>
<!-- fx_model&#45;&gt;db -->
<g id="edge8" class="edge">
<title>fx_model&#45;&gt;db</title>
<path fill="none" stroke="black" d="M275.49,-291.52C265.34,-278.47 249.86,-260.89 232.75,-249.74 230.42,-248.22 208.43,-240.48 185.37,-232.56"/>
<polygon fill="black" stroke="black" points="186.42,-229.22 175.82,-229.29 184.15,-235.84 186.42,-229.22"/>
<text text-anchor="middle" x="296.25" y="-253.54" font-family="Times,serif" font-size="14.00">stored in DB</text>
</g>
<!-- models&#45;&gt;db -->
<g id="edge5" class="edge">
<title>models&#45;&gt;db</title>
<path fill="none" stroke="black" d="M104.32,-282.69C109.15,-269.57 115.02,-253.67 119.9,-240.45"/>
<polygon fill="black" stroke="black" points="123.23,-241.54 123.4,-230.95 116.66,-239.12 123.23,-241.54"/>
<text text-anchor="middle" x="172.75" y="-253.54" font-family="Times,serif" font-size="14.00">save/load items</text>
</g>
<!-- db&#45;&gt;app -->
<g id="edge6" class="edge">
<title>db&#45;&gt;app</title>
<path fill="none" stroke="black" d="M136.79,-194.37C141.86,-183.58 149.61,-170.04 159.75,-160.74 168.13,-153.06 178.08,-146.48 188.31,-140.92"/>
<polygon fill="black" stroke="black" points="190.02,-143.97 197.33,-136.3 186.83,-137.74 190.02,-143.97"/>
<text text-anchor="middle" x="203.75" y="-164.54" font-family="Times,serif" font-size="14.00">query for UI</text>
</g>
<!-- output -->
<g id="node10" class="node">
<title>output</title>
<polygon fill="#f5f5f5" stroke="black" points="313.25,-38 190.25,-38 190.25,0 313.25,0 313.25,-38"/>
<text text-anchor="middle" x="251.75" y="-22.8" font-family="Times,serif" font-size="14.00">HTML Preview</text>
<text text-anchor="middle" x="251.75" y="-7.8" font-family="Times,serif" font-size="14.00">PDF Export</text>
</g>
<!-- app&#45;&gt;output -->
<g id="edge10" class="edge">
<title>app&#45;&gt;output</title>
<path fill="none" stroke="black" d="M251.75,-88.95C251.75,-76.35 251.75,-61.17 251.75,-48.28"/>
<polygon fill="black" stroke="black" points="255.25,-48.08 251.75,-38.08 248.25,-48.08 255.25,-48.08"/>
<text text-anchor="middle" x="318.25" y="-59.8" font-family="Times,serif" font-size="14.00">generate &amp; export</text>
</g>
</g>
</svg>
